<svg width="17" height="24" viewBox="0 0 17 24" fill="none" xmlns="http://www.w3.org/2000/svg">
<path d="M4.13235 21.2308V23.5385C4.13235 23.7932 4.33823 24 4.59191 24H6.43015C6.55203 24 6.66892 23.9514 6.7551 23.8648C6.84129 23.7783 6.88971 23.6609 6.88971 23.5385V21.2308H7.80882V23.5385C7.80882 23.7932 8.01471 24 8.26838 24H10.1066C10.2285 24 10.3454 23.9514 10.4316 23.8648C10.5178 23.7783 10.5662 23.6609 10.5662 23.5385V21.2308H10.7206C14.3824 21.2308 17 19.3237 17 16.0246C17 13.2517 15.1489 11.736 12.9816 11.52V11.3575C14.7647 10.9108 16.0754 9.55938 16.0754 7.31446C16.0754 4.48615 13.9614 2.76923 10.7353 2.76923H10.5662V0.461538C10.5662 0.339131 10.5178 0.221737 10.4316 0.135182C10.3454 0.0486263 10.2285 0 10.1066 0H8.26838C8.1465 0 8.02961 0.0486263 7.94343 0.135182C7.85724 0.221737 7.80882 0.339131 7.80882 0.461538V2.76923H6.75551V0.461538C6.75551 0.339131 6.7071 0.221737 6.62091 0.135182C6.53473 0.0486263 6.41784 0 6.29596 0H4.59191C4.47003 0 4.35314 0.0486263 4.26695 0.135182C4.18077 0.221737 4.13235 0.339131 4.13235 0.461538V2.76923L0.459559 2.78954C0.337676 2.78954 0.220785 2.83816 0.134601 2.92472C0.0484173 3.01128 0 3.12867 0 3.25108V5.07692C0 5.32985 0.202206 5.53846 0.455882 5.53846L1.84375 5.52923C2.2078 5.53167 2.55612 5.67862 2.81268 5.93802C3.06925 6.19743 3.21324 6.54822 3.21324 6.91385V17.0769C3.21324 17.4441 3.06798 17.7963 2.80943 18.056C2.55088 18.3157 2.20021 18.4615 1.83456 18.4615L0.459559 18.4818C0.337676 18.4818 0.220785 18.5305 0.134601 18.617C0.0484173 18.7036 0 18.821 0 18.9434V20.7895C0 21.0443 0.205882 21.2511 0.459559 21.2511L4.13235 21.2308ZM6.75551 5.51446H9.91544C11.5809 5.51446 12.5588 6.43385 12.5588 7.93661C12.5588 9.54461 11.5018 10.4511 9.10846 10.4511H6.75551V5.51446ZM6.75551 12.9932H10.1379C12.2279 12.9932 13.3658 14.064 13.3658 15.8068C13.3658 17.5662 12.2151 18.4837 9.3989 18.4837H6.75551V12.9951V12.9932Z" fill="#ABB2BF"/>
</svg>
